<svg xmlns="http://www.w3.org/2000/svg" xmlns:xlink="http://www.w3.org/1999/xlink" width="699" height="142" viewBox="0 0 699 142">
  <defs>
    <clipPath id="clip-path">
      <rect id="Rectangle_730" data-name="Rectangle 730" width="689.412" height="128.91" fill="none"/>
    </clipPath>
    <clipPath id="clip-Talena-logo">
      <rect width="699" height="142"/>
    </clipPath>
  </defs>
  <g id="Talena-logo" clip-path="url(#clip-Talena-logo)">
    <rect width="699" height="142" fill="rgba(255,255,255,0)"/>
    <g id="Group_365" data-name="Group 365" transform="translate(5.001 7)">
      <g id="Group_364" data-name="Group 364" clip-path="url(#clip-path)">
        <path id="Path_352" data-name="Path 352" d="M274.073,132.019q-.714,0-1.159-1.069a5.947,5.947,0,0,1-.445-2.317,5.006,5.006,0,0,1,.624-2.405,2.007,2.007,0,0,1,1.871-1.157,10.369,10.369,0,0,0,4.365-1.871,7.577,7.577,0,0,0,3.3-4.9V23.873H274.25a13.336,13.336,0,0,0-8.641,3.118,36.312,36.312,0,0,0-6.592,6.948,42.859,42.859,0,0,0-4.365,7.394q-1.6,3.568-1.959,4.633a2.3,2.3,0,0,1-1.426,1.068,6.919,6.919,0,0,1-2.227.357,3.975,3.975,0,0,1-1.96-.445c-.534-.3-.8-.623-.8-.98q.176-1.244.445-5.257t.535-8.818q.267-4.811.445-9.532t.356-7.393q.175-1.779,2.583-.981t9.354.8h76.968q6.947,0,9.354-.8t2.583.981q.176,2.672.445,7.393t.535,9.532q.267,4.81.445,8.818t.356,5.257c0,.357-.267.684-.8.98a3.98,3.98,0,0,1-1.96.445,6.907,6.907,0,0,1-2.227-.357,2.287,2.287,0,0,1-1.425-1.068q-.36-1.07-1.96-4.633a42.938,42.938,0,0,0-4.365-7.394,36.495,36.495,0,0,0-6.592-6.948,13.341,13.341,0,0,0-8.641-3.118h-5.345v92.647a7.226,7.226,0,0,0,2.939,6.236,10.738,10.738,0,0,0,4.9,2.316,2.012,2.012,0,0,1,1.87,1.157,5.03,5.03,0,0,1,.624,2.405,7.3,7.3,0,0,1-.356,2.317c-.24.712-.654,1.069-1.247,1.069Z" transform="translate(-84.507 -4.713)"/>
        <path id="Path_353" data-name="Path 353" d="M456.457,126.04a30.446,30.446,0,0,1-4.632,11.936A19.63,19.63,0,0,1,442.916,146a22.231,22.231,0,0,1-6.948,1.781,35.191,35.191,0,0,1-7.483-.089,34.621,34.621,0,0,1-7.127-1.6,22.6,22.6,0,0,1-5.879-2.939,19.039,19.039,0,0,1-5.88-6.058,23.224,23.224,0,0,1-3.118-8.017,26.3,26.3,0,0,1-.178-8.64,20.808,20.808,0,0,1,2.939-8.106,47.332,47.332,0,0,1,7.572-9.533,37.571,37.571,0,0,1,9.71-6.68,57.876,57.876,0,0,1,12.829-4.276,122.073,122.073,0,0,1,17.1-2.317V80.252q0-7.482-2.583-11.67a8.066,8.066,0,0,0-7.216-4.186,12.127,12.127,0,0,0-7.3,1.959,12.915,12.915,0,0,0-4.1,4.99,23.641,23.641,0,0,0-1.96,6.682q-.534,3.653-1.069,7.036a5.19,5.19,0,0,1-2.494,3.831,12.125,12.125,0,0,1-4.989,1.692,17.855,17.855,0,0,1-5.879-.267,12.76,12.76,0,0,1-5.167-2.227,8.63,8.63,0,0,1-3.117-4.544,12.623,12.623,0,0,1-.267-5.79,19.1,19.1,0,0,1,2.316-6.147,22.857,22.857,0,0,1,4.811-5.791A36.247,36.247,0,0,1,430.356,58.6a51.261,51.261,0,0,1,16.3-2.583q19.417,0,30.2,9t10.779,25.21v29.932l.178,7.66v-.356a15.971,15.971,0,0,0,.8,5.524,9.32,9.32,0,0,0,2.049,3.385,7.5,7.5,0,0,0,2.672,1.781q1.425.535,2.672.891a1.915,1.915,0,0,1,1.515,1.959,3.347,3.347,0,0,1-.979,2.672A9.255,9.255,0,0,1,492,145.817a45.215,45.215,0,0,1-9.354.713,72.345,72.345,0,0,1-9.532-.624,22.871,22.871,0,0,1-8.463-2.761A15.647,15.647,0,0,1,458.683,137q-2.229-4.008-2.227-10.6Zm-20.311-3.029a10.227,10.227,0,0,0,2.049,6.414q2.046,2.672,6.859.891a16.419,16.419,0,0,0,7.572-6.5,24.453,24.453,0,0,0,3.83-10.779V97.891a14.768,14.768,0,0,0-7.572,2.138,24.158,24.158,0,0,0-6.5,5.612,27.778,27.778,0,0,0-4.543,8.017,26.537,26.537,0,0,0-1.693,9.354" transform="translate(-139.324 -19.223)"/>
        <path id="Path_354" data-name="Path 354" d="M555.338,32.74a15.731,15.731,0,0,0-1.159-5.79q-1.161-2.94-3.117-3.652a2.428,2.428,0,0,1-1.693-1.427,5.5,5.5,0,0,1-.445-2.137,2.947,2.947,0,0,1,.623-1.871,1.864,1.864,0,0,1,1.515-.8,78.55,78.55,0,0,0,7.928-.445q4.364-.443,8.819-1.069t8.552-1.514q4.1-.89,7.3-1.783l2.495-.712V115.766q0,4.1,1.158,5.879a7.166,7.166,0,0,0,3.118,2.672,2.686,2.686,0,0,1,1.6,1.515,6.8,6.8,0,0,1,.623,2.315,6.28,6.28,0,0,1-.177,2.138,1.143,1.143,0,0,1-1.159.981H550.171q-.715,0-1.07-.981a4.986,4.986,0,0,1-.267-2.138,6.71,6.71,0,0,1,.624-2.315,2.684,2.684,0,0,1,1.6-1.515,7.193,7.193,0,0,0,3.117-2.672q1.158-1.779,1.159-5.879Z" transform="translate(-188.319 -3.959)"/>
        <path id="Path_355" data-name="Path 355" d="M666.436,147.947a48.652,48.652,0,0,1-18.886-3.563,42.326,42.326,0,0,1-14.52-9.8,41.588,41.588,0,0,1-9.087-14.876,48.1,48.1,0,0,1-2.583-18.975,51.013,51.013,0,0,1,4.187-17.906,47.452,47.452,0,0,1,9.621-14.342,44.556,44.556,0,0,1,13.808-9.532,40.859,40.859,0,0,1,16.748-3.474,51.208,51.208,0,0,1,14.7,2.049,40.951,40.951,0,0,1,12.115,5.791,30.761,30.761,0,0,1,8.374,8.73,24.41,24.41,0,0,1,3.652,10.868v2.227a12.056,12.056,0,0,1-.534,3.475,6.976,6.976,0,0,1-1.96,3.117,6.346,6.346,0,0,1-4.454,1.337l-44.185.357v7.3a39.509,39.509,0,0,0,1.247,9.976,32.494,32.494,0,0,0,3.474,8.552,23.559,23.559,0,0,0,5.256,6.236A16.581,16.581,0,0,0,670,128.882a41.29,41.29,0,0,0,15.5.891,23.622,23.622,0,0,0,11.4-4.633q2.849-2.312,5.346-.355a3.7,3.7,0,0,1,.534,5.166,35.933,35.933,0,0,1-7.573,8.018,47.559,47.559,0,0,1-9.175,5.612,45.912,45.912,0,0,1-9.888,3.3,47.111,47.111,0,0,1-9.71,1.07M664.12,83.273a22.2,22.2,0,0,0,6.147-1.693q3.115-1.336,3.118-5.434a12.566,12.566,0,0,0-2.138-7.572,6.554,6.554,0,0,0-5.523-2.939,8.664,8.664,0,0,0-8.106,4.544q-2.586,4.543-3.475,13.273Z" transform="translate(-213.185 -19.037)"/>
        <path id="Path_356" data-name="Path 356" d="M812.916,84.232q0-3.74-.178-6.77a15.031,15.031,0,0,0-1.069-5.078,6.01,6.01,0,0,0-2.761-3.029,8.571,8.571,0,0,0-5.256-.446,9.477,9.477,0,0,0-4.9,2.851,27.136,27.136,0,0,0-4.632,6.058,40.546,40.546,0,0,0-3.386,7.66,25.288,25.288,0,0,0-1.337,7.839V130.2q0,4.1,1.159,5.879a7.149,7.149,0,0,0,3.118,2.673,2.682,2.682,0,0,1,1.6,1.514,6.786,6.786,0,0,1,.624,2.316,6.268,6.268,0,0,1-.178,2.138,1.141,1.141,0,0,1-1.157.98H753.053q-.714,0-1.07-.98a4.986,4.986,0,0,1-.267-2.138,6.731,6.731,0,0,1,.624-2.316,2.682,2.682,0,0,1,1.6-1.514,7.2,7.2,0,0,0,3.118-2.673q1.156-1.778,1.159-5.879V73.186a11.132,11.132,0,0,0-1.426-3.919,5.123,5.123,0,0,0-2.494-2.316,2.428,2.428,0,0,1-1.692-1.426,5.5,5.5,0,0,1-.446-2.137,2.949,2.949,0,0,1,.624-1.871,1.857,1.857,0,0,1,1.514-.8,70.171,70.171,0,0,0,8.819-.623q4.9-.621,9.709-1.6T782,56.439q4.364-1.069,7.394-2.138V69.623q5.7-11.759,17.817-14.787a35.919,35.919,0,0,1,14.7-.8,28.032,28.032,0,0,1,11.67,4.721,23.7,23.7,0,0,1,7.75,9.531A33.037,33.037,0,0,1,844.1,82.273v37.059l.178,7.66v-.357a15.984,15.984,0,0,0,.8,5.524,9.325,9.325,0,0,0,2.049,3.385,7.486,7.486,0,0,0,2.672,1.781q1.423.535,2.672.891a1.915,1.915,0,0,1,1.515,1.959,3.345,3.345,0,0,1-.979,2.672,9.254,9.254,0,0,1-4.543,2.139,45.269,45.269,0,0,1-9.354.713,72.361,72.361,0,0,1-9.532-.623,22.885,22.885,0,0,1-8.462-2.762,15.641,15.641,0,0,1-5.969-6.146q-2.228-4.009-2.227-10.6Z" transform="translate(-257.935 -18.393)"/>
        <path id="Path_357" data-name="Path 357" d="M960.68,126.04a30.443,30.443,0,0,1-4.632,11.936A19.63,19.63,0,0,1,947.139,146a22.233,22.233,0,0,1-6.948,1.781,35.194,35.194,0,0,1-7.483-.089,34.627,34.627,0,0,1-7.127-1.6,22.613,22.613,0,0,1-5.879-2.939,19.041,19.041,0,0,1-5.879-6.058,23.213,23.213,0,0,1-3.118-8.017,26.3,26.3,0,0,1-.179-8.64,20.816,20.816,0,0,1,2.939-8.106,47.333,47.333,0,0,1,7.573-9.533,37.578,37.578,0,0,1,9.709-6.68,57.881,57.881,0,0,1,12.829-4.276,122.061,122.061,0,0,1,17.1-2.317V80.252q0-7.482-2.583-11.67a8.066,8.066,0,0,0-7.215-4.186,12.124,12.124,0,0,0-7.3,1.959,12.914,12.914,0,0,0-4.1,4.99,23.641,23.641,0,0,0-1.96,6.682q-.533,3.653-1.068,7.036a5.19,5.19,0,0,1-2.494,3.831,12.125,12.125,0,0,1-4.989,1.692,17.855,17.855,0,0,1-5.879-.267,12.759,12.759,0,0,1-5.167-2.227,8.63,8.63,0,0,1-3.118-4.544,12.62,12.62,0,0,1-.267-5.79,19.087,19.087,0,0,1,2.316-6.147,22.855,22.855,0,0,1,4.811-5.791A36.25,36.25,0,0,1,934.579,58.6a51.263,51.263,0,0,1,16.3-2.583q19.417,0,30.2,9t10.779,25.21v29.932l.178,7.66v-.356a15.972,15.972,0,0,0,.8,5.524,9.33,9.33,0,0,0,2.049,3.385,7.509,7.509,0,0,0,2.672,1.781q1.425.535,2.672.891a1.915,1.915,0,0,1,1.515,1.959,3.348,3.348,0,0,1-.98,2.672,9.253,9.253,0,0,1-4.543,2.138,45.211,45.211,0,0,1-9.354.713,72.348,72.348,0,0,1-9.532-.624,22.875,22.875,0,0,1-8.463-2.761A15.648,15.648,0,0,1,962.906,137q-2.229-4.008-2.227-10.6Zm-20.311-3.029a10.224,10.224,0,0,0,2.05,6.414q2.045,2.672,6.859.891a16.42,16.42,0,0,0,7.572-6.5,24.45,24.45,0,0,0,3.83-10.779V97.891a14.768,14.768,0,0,0-7.572,2.138,24.171,24.171,0,0,0-6.5,5.612,27.806,27.806,0,0,0-4.543,8.017,26.531,26.531,0,0,0-1.693,9.354" transform="translate(-312.341 -19.223)"/>
        <path id="Path_358" data-name="Path 358" d="M128.494,128.553c-22.892.026-44.325.782-66.842-.335C26.154,126.458-.4,97.661,0,63.36A63.941,63.941,0,0,1,61.9.031c34.939-1.084,66.028,25.559,66.225,61.633Z" transform="translate(0 0)" fill="#ccbbfb"/>
      </g>
    </g>
  </g>
</svg>
